<svg width="69" height="14" viewBox="0 0 69 14" fill="none" xmlns="http://www.w3.org/2000/svg">
<path d="M1.24 13C0.706667 13 0.44 12.7333 0.44 12.2V5.048C0.44 4.51467 0.706667 4.248 1.24 4.248C1.77333 4.248 2.04 4.51467 2.04 5.048V5.352C2.36 4.97867 2.74933 4.68533 3.208 4.472C3.67733 4.25867 4.184 4.152 4.728 4.152C5.368 4.152 5.84267 4.25867 6.152 4.472C6.472 4.67467 6.59467 4.92 6.52 5.208C6.46667 5.432 6.36 5.58133 6.2 5.656C6.04 5.72 5.85333 5.73067 5.64 5.688C4.95733 5.54933 4.344 5.53867 3.8 5.656C3.256 5.77333 2.824 5.992 2.504 6.312C2.19467 6.632 2.04 7.03733 2.04 7.528V12.2C2.04 12.7333 1.77333 13 1.24 13ZM11.6926 13.064C10.8073 13.064 10.018 12.8773 9.32463 12.504C8.64196 12.12 8.10329 11.5973 7.70863 10.936C7.32463 10.264 7.13263 9.496 7.13263 8.632C7.13263 7.75733 7.31396 6.98933 7.67663 6.328C8.04996 5.656 8.56196 5.13333 9.21263 4.76C9.86329 4.376 10.61 4.184 11.4526 4.184C12.2846 4.184 12.9993 4.37067 13.5966 4.744C14.194 5.10667 14.6473 5.61333 14.9566 6.264C15.2766 6.904 15.4366 7.64533 15.4366 8.488C15.4366 8.69067 15.3673 8.86133 15.2286 9C15.09 9.128 14.914 9.192 14.7006 9.192H8.62063C8.73796 9.928 9.07396 10.5307 9.62863 11C10.194 11.4587 10.882 11.688 11.6926 11.688C12.0233 11.688 12.3593 11.6293 12.7006 11.512C13.0526 11.384 13.3353 11.24 13.5486 11.08C13.7086 10.9627 13.8793 10.904 14.0606 10.904C14.2526 10.8933 14.418 10.9467 14.5566 11.064C14.738 11.224 14.834 11.4 14.8446 11.592C14.8553 11.784 14.77 11.9493 14.5886 12.088C14.226 12.376 13.7726 12.6107 13.2286 12.792C12.6953 12.9733 12.1833 13.064 11.6926 13.064ZM11.4526 5.56C10.6633 5.56 10.0286 5.77867 9.54863 6.216C9.06863 6.65333 8.76463 7.21867 8.63663 7.912H13.9646C13.8686 7.22933 13.6073 6.66933 13.1806 6.232C12.754 5.784 12.178 5.56 11.4526 5.56ZM20.7021 13.064C19.9555 13.064 19.2621 12.952 18.6221 12.728C17.9928 12.4933 17.5021 12.2 17.1501 11.848C16.9901 11.6773 16.9208 11.4853 16.9421 11.272C16.9741 11.048 17.0808 10.8667 17.2621 10.728C17.4755 10.5573 17.6835 10.488 17.8861 10.52C18.0995 10.5413 18.2808 10.632 18.4301 10.792C18.6115 10.9947 18.8995 11.1867 19.2941 11.368C19.6995 11.5387 20.1475 11.624 20.6381 11.624C21.2568 11.624 21.7261 11.5227 22.0461 11.32C22.3768 11.1173 22.5475 10.856 22.5581 10.536C22.5688 10.216 22.4141 9.93867 22.0941 9.704C21.7848 9.46933 21.2141 9.27733 20.3821 9.128C19.3048 8.91467 18.5208 8.59467 18.0301 8.168C17.5501 7.74133 17.3101 7.21867 17.3101 6.6C17.3101 6.056 17.4701 5.608 17.7901 5.256C18.1101 4.89333 18.5208 4.62667 19.0221 4.456C19.5235 4.27467 20.0461 4.184 20.5901 4.184C21.2941 4.184 21.9181 4.296 22.4621 4.52C23.0061 4.744 23.4381 5.05333 23.7581 5.448C23.9075 5.61867 23.9768 5.8 23.9661 5.992C23.9555 6.17333 23.8648 6.328 23.6941 6.456C23.5235 6.57333 23.3208 6.61067 23.0861 6.568C22.8515 6.52533 22.6541 6.42933 22.4941 6.28C22.2275 6.024 21.9395 5.848 21.6301 5.752C21.3208 5.656 20.9635 5.608 20.5581 5.608C20.0888 5.608 19.6888 5.688 19.3581 5.848C19.0381 6.008 18.8781 6.24267 18.8781 6.552C18.8781 6.744 18.9261 6.92 19.0221 7.08C19.1288 7.22933 19.3315 7.368 19.6301 7.496C19.9288 7.61333 20.3661 7.73067 20.9421 7.848C22.1475 8.08267 22.9795 8.41867 23.4381 8.856C23.9075 9.28267 24.1421 9.81067 24.1421 10.44C24.1421 10.9307 24.0088 11.3733 23.7421 11.768C23.4861 12.1627 23.1021 12.4773 22.5901 12.712C22.0888 12.9467 21.4595 13.064 20.7021 13.064ZM29.3896 13C28.8563 13 28.3763 12.8667 27.9496 12.6C27.523 12.3227 27.187 11.9493 26.9416 11.48C26.6963 11.0107 26.5736 10.4827 26.5736 9.896V5.944H25.8376C25.6136 5.944 25.4323 5.88 25.2936 5.752C25.155 5.624 25.0856 5.464 25.0856 5.272C25.0856 5.05867 25.155 4.888 25.2936 4.76C25.4323 4.632 25.6136 4.568 25.8376 4.568H26.5736V2.264C26.5736 2.02933 26.6483 1.83733 26.7976 1.688C26.947 1.53867 27.139 1.464 27.3736 1.464C27.6083 1.464 27.8003 1.53867 27.9496 1.688C28.099 1.83733 28.1736 2.02933 28.1736 2.264V4.568H29.5336C29.7576 4.568 29.939 4.632 30.0776 4.76C30.2163 4.888 30.2856 5.05867 30.2856 5.272C30.2856 5.464 30.2163 5.624 30.0776 5.752C29.939 5.88 29.7576 5.944 29.5336 5.944H28.1736V9.896C28.1736 10.3227 28.291 10.68 28.5256 10.968C28.7603 11.256 29.0483 11.4 29.3896 11.4H29.9336C30.1256 11.4 30.2856 11.4747 30.4136 11.624C30.5523 11.7733 30.6216 11.9653 30.6216 12.2C30.6216 12.4347 30.531 12.6267 30.3496 12.776C30.179 12.9253 29.955 13 29.6776 13H29.3896ZM36.5955 13.064C35.7315 13.064 34.9688 12.8773 34.3075 12.504C33.6462 12.12 33.1235 11.5973 32.7395 10.936C32.3662 10.264 32.1795 9.496 32.1795 8.632C32.1795 7.75733 32.3662 6.98933 32.7395 6.328C33.1235 5.656 33.6462 5.13333 34.3075 4.76C34.9688 4.376 35.7315 4.184 36.5955 4.184C37.4488 4.184 38.2062 4.376 38.8675 4.76C39.5288 5.13333 40.0462 5.656 40.4195 6.328C40.8035 6.98933 40.9955 7.75733 40.9955 8.632C40.9955 9.496 40.8088 10.264 40.4355 10.936C40.0622 11.5973 39.5448 12.12 38.8835 12.504C38.2222 12.8773 37.4595 13.064 36.5955 13.064ZM36.5955 11.624C37.1502 11.624 37.6408 11.496 38.0675 11.24C38.4942 10.984 38.8248 10.632 39.0595 10.184C39.3048 9.736 39.4275 9.21867 39.4275 8.632C39.4275 8.04533 39.3048 7.528 39.0595 7.08C38.8248 6.62133 38.4942 6.264 38.0675 6.008C37.6408 5.752 37.1502 5.624 36.5955 5.624C36.0408 5.624 35.5502 5.752 35.1235 6.008C34.6968 6.264 34.3608 6.62133 34.1155 7.08C33.8702 7.528 33.7475 8.04533 33.7475 8.632C33.7475 9.21867 33.8702 9.736 34.1155 10.184C34.3608 10.632 34.6968 10.984 35.1235 11.24C35.5502 11.496 36.0408 11.624 36.5955 11.624ZM44.3684 13C44.1657 13 43.9844 12.9253 43.8244 12.776C43.6644 12.6267 43.5844 12.4293 43.5844 12.184V5.944H42.8964C42.6724 5.944 42.491 5.88 42.3524 5.752C42.2137 5.624 42.1444 5.464 42.1444 5.272C42.1444 5.05867 42.2137 4.888 42.3524 4.76C42.491 4.632 42.6724 4.568 42.8964 4.568H43.5844V4.296C43.5844 3.528 43.7337 2.86133 44.0324 2.296C44.3417 1.73067 44.7684 1.29333 45.3124 0.983999C45.8564 0.664 46.4857 0.504 47.2004 0.504C47.435 0.504 47.627 0.573333 47.7764 0.712C47.9364 0.850666 48.0164 1.02667 48.0164 1.24C48.0164 1.44267 47.9364 1.61867 47.7764 1.768C47.627 1.90667 47.435 1.976 47.2004 1.976C46.603 1.976 46.123 2.17333 45.7604 2.568C45.3977 2.96267 45.2164 3.48533 45.2164 4.136V4.568H46.8484C47.0724 4.568 47.2537 4.632 47.3924 4.76C47.531 4.888 47.6004 5.05867 47.6004 5.272C47.6004 5.464 47.531 5.624 47.3924 5.752C47.2537 5.88 47.0724 5.944 46.8484 5.944H45.2164V12.184C45.2164 12.4293 45.1417 12.6267 44.9924 12.776C44.843 12.9253 44.635 13 44.3684 13ZM52.9794 13.08C52.2434 13.08 51.582 12.9253 50.9954 12.616C50.4194 12.296 49.9607 11.832 49.6194 11.224C49.2887 10.616 49.1234 9.86933 49.1234 8.984V5.048C49.1234 4.81333 49.198 4.62133 49.3474 4.472C49.5074 4.312 49.7047 4.232 49.9394 4.232C50.174 4.232 50.366 4.312 50.5154 4.472C50.6754 4.62133 50.7554 4.81333 50.7554 5.048V8.984C50.7554 9.89067 50.9954 10.5573 51.4754 10.984C51.966 11.4 52.574 11.608 53.2994 11.608C53.758 11.608 54.1634 11.5173 54.5154 11.336C54.878 11.1547 55.166 10.9093 55.3794 10.6C55.5927 10.2907 55.6994 9.944 55.6994 9.56V5.048C55.6994 4.80267 55.774 4.60533 55.9234 4.456C56.0834 4.30667 56.2807 4.232 56.5154 4.232C56.7607 4.232 56.958 4.30667 57.1074 4.456C57.2567 4.60533 57.3314 4.80267 57.3314 5.048V12.184C57.3314 12.4187 57.2567 12.616 57.1074 12.776C56.958 12.9253 56.7607 13 56.5154 13C56.2807 13 56.0834 12.9253 55.9234 12.776C55.774 12.616 55.6994 12.4187 55.6994 12.184V12.008C55.3687 12.3387 54.9687 12.6 54.4994 12.792C54.03 12.984 53.5234 13.08 52.9794 13.08ZM64.1736 13.064C63.3416 13.064 62.5896 12.872 61.9176 12.488C61.2563 12.0933 60.7283 11.56 60.3336 10.888C59.9496 10.216 59.7576 9.45867 59.7576 8.616C59.7576 7.77333 59.9336 7.02133 60.2856 6.36C60.6483 5.688 61.139 5.16 61.7576 4.776C62.3763 4.38133 63.075 4.184 63.8536 4.184C64.483 4.184 65.0643 4.31733 65.5976 4.584C66.131 4.84 66.579 5.192 66.9416 5.64V1.32C66.9416 1.07467 67.0163 0.877333 67.1656 0.728C67.3256 0.578666 67.523 0.504 67.7576 0.504C68.003 0.504 68.2003 0.578666 68.3496 0.728C68.499 0.877333 68.5736 1.07467 68.5736 1.32V8.616C68.5736 9.45867 68.3763 10.216 67.9816 10.888C67.5976 11.56 67.075 12.0933 66.4136 12.488C65.7523 12.872 65.0056 13.064 64.1736 13.064ZM64.1736 11.624C64.7176 11.624 65.203 11.496 65.6296 11.24C66.0563 10.9733 66.3923 10.6107 66.6376 10.152C66.883 9.69333 67.0056 9.18133 67.0056 8.616C67.0056 8.04 66.883 7.528 66.6376 7.08C66.3923 6.632 66.0563 6.28 65.6296 6.024C65.203 5.75733 64.7176 5.624 64.1736 5.624C63.6403 5.624 63.155 5.75733 62.7176 6.024C62.291 6.28 61.9496 6.632 61.6936 7.08C61.4483 7.528 61.3256 8.04 61.3256 8.616C61.3256 9.18133 61.4483 9.69333 61.6936 10.152C61.9496 10.6107 62.291 10.9733 62.7176 11.24C63.155 11.496 63.6403 11.624 64.1736 11.624Z" fill="white"/>
<path d="M2.04 5.352H1.84V5.89265L2.19185 5.48216L2.04 5.352ZM3.208 4.472L3.12524 4.28992L3.12365 4.29066L3.208 4.472ZM6.152 4.472L6.03837 4.63677L6.04499 4.64096L6.152 4.472ZM6.52 5.208L6.32636 5.1578L6.32544 5.16168L6.52 5.208ZM6.2 5.656L6.2744 5.84199L6.28458 5.83724L6.2 5.656ZM5.64 5.688L5.60019 5.884L5.60078 5.88412L5.64 5.688ZM2.504 6.312L2.36256 6.17056L2.3602 6.173L2.504 6.312ZM1.24 12.8C1.00416 12.8 0.864019 12.7412 0.781421 12.6586C0.698824 12.576 0.64 12.4358 0.64 12.2H0.24C0.24 12.4975 0.314509 12.7574 0.498579 12.9414C0.682648 13.1255 0.942504 13.2 1.24 13.2V12.8ZM0.64 12.2V5.048H0.24V12.2H0.64ZM0.64 5.048C0.64 4.81216 0.698824 4.67202 0.781421 4.58942C0.864019 4.50682 1.00416 4.448 1.24 4.448V4.048C0.942504 4.048 0.682648 4.12251 0.498579 4.30658C0.314509 4.49065 0.24 4.7505 0.24 5.048H0.64ZM1.24 4.448C1.47584 4.448 1.61598 4.50682 1.69858 4.58942C1.78118 4.67202 1.84 4.81216 1.84 5.048H2.24C2.24 4.7505 2.16549 4.49065 1.98142 4.30658C1.79735 4.12251 1.5375 4.048 1.24 4.048V4.448ZM1.84 5.048V5.352H2.24V5.048H1.84ZM2.19185 5.48216C2.49272 5.13114 2.85881 4.85499 3.29235 4.65334L3.12365 4.29066C2.63985 4.51568 2.22728 4.82619 1.88815 5.22184L2.19185 5.48216ZM3.29076 4.65407C3.73268 4.4532 4.21094 4.352 4.728 4.352V3.952C4.15706 3.952 3.62199 4.06413 3.12524 4.28993L3.29076 4.65407ZM4.728 4.352C5.35292 4.352 5.77866 4.45748 6.03845 4.63664L6.26555 4.30736C5.90667 4.05986 5.38308 3.952 4.728 3.952V4.352ZM6.04499 4.64096C6.18547 4.72993 6.26512 4.81746 6.30511 4.89744C6.34293 4.97307 6.35271 5.05632 6.3264 5.15781L6.7136 5.25819C6.76195 5.07168 6.74774 4.88826 6.66289 4.71856C6.58021 4.55321 6.43853 4.41673 6.25901 4.30304L6.04499 4.64096ZM6.32544 5.16168C6.28159 5.34583 6.20413 5.43337 6.11542 5.47476L6.28458 5.83724C6.51587 5.7293 6.65174 5.51817 6.71456 5.25432L6.32544 5.16168ZM6.12572 5.4703C6.01013 5.51654 5.86446 5.52893 5.67922 5.49188L5.60078 5.88412C5.84221 5.9324 6.06987 5.92346 6.27428 5.84169L6.12572 5.4703ZM5.67981 5.492C4.97668 5.34918 4.33472 5.33607 3.75783 5.4605L3.84217 5.8515C4.35328 5.74126 4.93799 5.74949 5.60019 5.884L5.67981 5.492ZM3.75783 5.4605C3.1849 5.58407 2.71543 5.81773 2.36258 6.17058L2.64542 6.45342C2.93257 6.16627 3.3271 5.9626 3.84217 5.8515L3.75783 5.4605ZM2.3602 6.173C2.01098 6.53426 1.84 6.99127 1.84 7.528H2.24C2.24 7.0834 2.37836 6.72974 2.6478 6.451L2.3602 6.173ZM1.84 7.528V12.2H2.24V7.528H1.84ZM1.84 12.2C1.84 12.4358 1.78118 12.576 1.69858 12.6586C1.61598 12.7412 1.47584 12.8 1.24 12.8V13.2C1.5375 13.2 1.79735 13.1255 1.98142 12.9414C2.16549 12.7574 2.24 12.4975 2.24 12.2H1.84ZM9.32463 12.504L9.22656 12.6783L9.22981 12.6801L9.32463 12.504ZM7.70863 10.936L7.53495 11.0352L7.53688 11.0385L7.70863 10.936ZM7.67663 6.328L7.50179 6.23087L7.50126 6.23183L7.67663 6.328ZM9.21263 4.76L9.31217 4.93349L9.31428 4.93224L9.21263 4.76ZM13.5966 4.744L13.4906 4.91361L13.4928 4.91496L13.5966 4.744ZM14.9566 6.264L14.776 6.34989L14.7777 6.35344L14.9566 6.264ZM15.2286 9L15.3644 9.14708L15.37 9.14142L15.2286 9ZM8.62063 9.192V8.992H8.38622L8.42312 9.22349L8.62063 9.192ZM9.62863 11L9.49941 11.1527L9.50262 11.1553L9.62863 11ZM12.7006 11.512L12.7657 11.7012L12.769 11.7L12.7006 11.512ZM13.5486 11.08L13.4303 10.9187L13.4286 10.92L13.5486 11.08ZM14.0606 10.904V11.1043L14.0717 11.1037L14.0606 10.904ZM14.5566 11.064L14.689 10.914L14.6858 10.9113L14.5566 11.064ZM14.8446 11.592L15.0443 11.5809L15.0443 11.5809L14.8446 11.592ZM14.5886 12.088L14.4671 11.9291L14.4642 11.9314L14.5886 12.088ZM13.2286 12.792L13.1654 12.6023L13.1642 12.6026L13.2286 12.792ZM8.63663 7.912L8.43995 7.87569L8.39632 8.112H8.63663V7.912ZM13.9646 7.912V8.112H14.1947L14.1627 7.88415L13.9646 7.912ZM13.1806 6.232L13.0358 6.36994L13.0375 6.37166L13.1806 6.232ZM11.6926 12.864C10.8362 12.864 10.0802 12.6837 9.41945 12.3279L9.22981 12.6801C9.95575 13.071 10.7784 13.264 11.6926 13.264V12.864ZM9.42268 12.3297C8.76988 11.9625 8.25684 11.4644 7.88037 10.8335L7.53688 11.0385C7.94974 11.7303 8.51404 12.2775 9.22657 12.6783L9.42268 12.3297ZM7.88227 10.8368C7.51748 10.1984 7.33263 9.46533 7.33263 8.632H6.93263C6.93263 9.52667 7.13177 10.3296 7.53498 11.0352L7.88227 10.8368ZM7.33263 8.632C7.33263 7.78554 7.5079 7.05162 7.85199 6.42417L7.50126 6.23183C7.12002 6.92704 6.93263 7.72912 6.93263 8.632H7.33263ZM7.85146 6.42513C8.20757 5.78413 8.69388 5.28822 9.31216 4.93347L9.11309 4.58653C8.43003 4.97845 7.89235 5.52787 7.50179 6.23087L7.85146 6.42513ZM9.31428 4.93224C9.9307 4.56845 10.6415 4.384 11.4526 4.384V3.984C10.5784 3.984 9.79588 4.18355 9.11097 4.58776L9.31428 4.93224ZM11.4526 4.384C12.254 4.384 12.9304 4.56349 13.4906 4.9136L13.7026 4.5744C13.0681 4.17784 12.3152 3.984 11.4526 3.984V4.384ZM13.4928 4.91496C14.0557 5.25671 14.4829 5.7333 14.776 6.34987L15.1373 6.17813C14.8117 5.49337 14.3322 4.95662 13.7004 4.57304L13.4928 4.91496ZM14.7777 6.35344C15.0816 6.96114 15.2366 7.67089 15.2366 8.488H15.6366C15.6366 7.61978 15.4717 6.84685 15.1355 6.17456L14.7777 6.35344ZM15.2366 8.488C15.2366 8.63961 15.187 8.7588 15.0872 8.85858L15.37 9.14142C15.5476 8.96387 15.6366 8.74173 15.6366 8.488H15.2366ZM15.093 8.85304C14.9961 8.94243 14.8707 8.992 14.7006 8.992V9.392C14.9572 9.392 15.1838 9.31357 15.3643 9.14696L15.093 8.85304ZM14.7006 8.992H8.62063V9.392H14.7006V8.992ZM8.42312 9.22349C8.54778 10.0054 8.90721 10.6516 9.49944 11.1527L9.75781 10.8473C9.24071 10.4098 8.92814 9.85058 8.81813 9.16051L8.42312 9.22349ZM9.50262 11.1553C10.1077 11.6462 10.8416 11.888 11.6926 11.888V11.488C10.9223 11.488 10.2803 11.2711 9.75463 10.8447L9.50262 11.1553ZM11.6926 11.888C12.0473 11.888 12.4053 11.825 12.7656 11.7011L12.6356 11.3229C12.3133 11.4337 11.9992 11.488 11.6926 11.488V11.888ZM12.769 11.7C13.1326 11.5677 13.4346 11.4155 13.6686 11.24L13.4286 10.92C13.236 11.0645 12.9726 11.2003 12.6323 11.324L12.769 11.7ZM13.6669 11.2413C13.796 11.1466 13.9259 11.104 14.0606 11.104V10.704C13.8327 10.704 13.6213 10.7787 13.4304 10.9187L13.6669 11.2413ZM14.0717 11.1037C14.216 11.0957 14.3303 11.1344 14.4274 11.2167L14.6858 10.9113C14.5057 10.7589 14.2893 10.691 14.0495 10.7043L14.0717 11.1037ZM14.4243 11.214C14.5764 11.3482 14.638 11.4775 14.6449 11.6031L15.0443 11.5809C15.03 11.3225 14.8995 11.0998 14.6889 10.914L14.4243 11.214ZM14.6449 11.6031C14.6512 11.7159 14.6072 11.822 14.4671 11.9291L14.7101 12.2469C14.9327 12.0766 15.0594 11.8521 15.0443 11.5809L14.6449 11.6031ZM14.4642 11.9314C14.1236 12.2019 13.6923 12.4266 13.1654 12.6023L13.2919 12.9817C13.8529 12.7947 14.3283 12.5501 14.713 12.2446L14.4642 11.9314ZM13.1642 12.6026C12.6486 12.778 12.1584 12.864 11.6926 12.864V13.264C12.2082 13.264 12.742 13.1687 13.293 12.9814L13.1642 12.6026ZM11.4526 5.36C10.6248 5.36 9.93833 5.59037 9.41393 6.06816L9.68332 6.36384C10.1189 5.96696 10.7018 5.76 11.4526 5.76V5.36ZM9.41393 6.06816C8.89883 6.53747 8.57516 7.14332 8.43995 7.87569L8.8333 7.94831C8.95409 7.29401 9.23842 6.76919 9.68332 6.36384L9.41393 6.06816ZM8.63663 8.112H13.9646V7.712H8.63663V8.112ZM14.1627 7.88415C14.0615 7.16497 13.7839 6.56399 13.3238 6.09234L13.0375 6.37166C13.4306 6.77467 13.6757 7.29369 13.7666 7.93985L14.1627 7.88415ZM13.3255 6.09407C12.8545 5.59957 12.2224 5.36 11.4526 5.36V5.76C12.1335 5.76 12.6534 5.96843 13.0358 6.36993L13.3255 6.09407ZM18.6221 12.728L18.5522 12.9154L18.5561 12.9168L18.6221 12.728ZM17.1501 11.848L17.0041 11.9849L17.0087 11.9894L17.1501 11.848ZM16.9421 11.272L16.744 11.2437L16.7431 11.2521L16.9421 11.272ZM17.2621 10.728L17.3836 10.8869L17.3871 10.8842L17.2621 10.728ZM17.8861 10.52L17.8549 10.7179L17.8662 10.719L17.8861 10.52ZM18.4301 10.792L18.5792 10.6586L18.5763 10.6555L18.4301 10.792ZM19.2941 11.368L19.2106 11.5498L19.2165 11.5523L19.2941 11.368ZM22.0461 11.32L21.9416 11.1495L21.9391 11.151L22.0461 11.32ZM22.5581 10.536L22.758 10.5427L22.758 10.5427L22.5581 10.536ZM22.0941 9.704L21.9732 9.86336L21.9759 9.86528L22.0941 9.704ZM20.3821 9.128L20.3433 9.32422L20.3468 9.32485L20.3821 9.128ZM18.0301 8.168L17.8972 8.31749L17.8989 8.31892L18.0301 8.168ZM17.7901 5.256L17.9381 5.39055L17.9401 5.38832L17.7901 5.256ZM19.0221 4.456L19.0866 4.64536L19.0902 4.64407L19.0221 4.456ZM22.4621 4.52L22.5383 4.33506L22.5383 4.33506L22.4621 4.52ZM23.7581 5.448L23.6027 5.57405L23.6076 5.5797L23.7581 5.448ZM23.9661 5.992L24.1658 6.00374L24.1658 6.00309L23.9661 5.992ZM23.6941 6.456L23.8075 6.62095L23.8141 6.616L23.6941 6.456ZM23.0861 6.568L23.0503 6.76477L23.0503 6.76477L23.0861 6.568ZM22.4941 6.28L22.3556 6.42429L22.3577 6.42621L22.4941 6.28ZM21.6301 5.752L21.5708 5.94301L21.5708 5.94301L21.6301 5.752ZM19.3581 5.848L19.271 5.66795L19.2687 5.66911L19.3581 5.848ZM19.0221 7.08L18.8506 7.1829L18.8547 7.18975L18.8594 7.19625L19.0221 7.08ZM19.6301 7.496L19.5513 7.67991L19.557 7.68215L19.6301 7.496ZM20.9421 7.848L20.9022 8.04398L20.9039 8.04431L20.9421 7.848ZM23.4381 8.856L23.3001 9.00079L23.3036 9.00399L23.4381 8.856ZM23.7421 11.768L23.5764 11.656L23.5743 11.6592L23.7421 11.768ZM22.5901 12.712L22.5068 12.5302L22.5053 12.5309L22.5901 12.712ZM20.7021 12.864C19.9757 12.864 19.3049 12.7551 18.6882 12.5392L18.5561 12.9168C19.2193 13.1489 19.9352 13.264 20.7021 13.264V12.864ZM18.692 12.5406C18.0807 12.3126 17.6175 12.0325 17.2915 11.7066L17.0087 11.9894C17.3868 12.3675 17.9049 12.674 18.5522 12.9154L18.692 12.5406ZM17.296 11.7112C17.1715 11.5783 17.1261 11.4421 17.1411 11.2919L16.7431 11.2521C16.7155 11.5285 16.8088 11.7763 17.0042 11.9848L17.296 11.7112ZM17.1401 11.3003C17.1646 11.1287 17.2435 10.994 17.3836 10.8869L17.1406 10.5691C16.9181 10.7393 16.7836 10.9673 16.7441 11.2437L17.1401 11.3003ZM17.3871 10.8842C17.5718 10.7364 17.7246 10.697 17.8549 10.7176L17.9173 10.3224C17.6423 10.279 17.3792 10.3782 17.1372 10.5718L17.3871 10.8842ZM17.8662 10.719C18.0302 10.7354 18.1669 10.8031 18.2839 10.9285L18.5763 10.6555C18.3946 10.4609 18.1688 10.3473 17.906 10.321L17.8662 10.719ZM18.2811 10.9254C18.4884 11.1571 18.8042 11.363 19.2106 11.5497L19.3776 11.1863C18.9947 11.0103 18.7345 10.8323 18.5792 10.6586L18.2811 10.9254ZM19.2165 11.5523C19.6491 11.7345 20.1239 11.824 20.6381 11.824V11.424C20.171 11.424 19.7498 11.3429 19.3717 11.1837L19.2165 11.5523ZM20.6381 11.824C21.273 11.824 21.7868 11.721 22.1531 11.489L21.9391 11.151C21.6655 11.3243 21.2405 11.424 20.6381 11.424V11.824ZM22.1506 11.4905C22.5247 11.2612 22.7446 10.9446 22.758 10.5427L22.3582 10.5293C22.3503 10.7674 22.2289 10.9734 21.9416 11.1495L22.1506 11.4905ZM22.758 10.5427C22.7714 10.1406 22.5712 9.80587 22.2124 9.54272L21.9759 9.86528C22.257 10.0715 22.3662 10.2914 22.3582 10.5293L22.758 10.5427ZM22.215 9.54466C21.8647 9.27894 21.2522 9.08097 20.4175 8.93115L20.3468 9.32485C21.1761 9.4737 21.7049 9.65973 21.9732 9.86334L22.215 9.54466ZM20.421 8.93181C19.3571 8.72114 18.6134 8.41011 18.1614 8.01708L17.8989 8.31892C18.4282 8.77922 19.2525 9.1082 20.3433 9.32419L20.421 8.93181ZM18.163 8.01852C17.7238 7.62816 17.5101 7.15911 17.5101 6.6H17.1101C17.1101 7.27822 17.3764 7.85451 17.8973 8.31748L18.163 8.01852ZM17.5101 6.6C17.5101 6.09811 17.6564 5.70043 17.9381 5.39053L17.6421 5.12146C17.2839 5.51557 17.1101 6.01389 17.1101 6.6H17.5101ZM17.9401 5.38832C18.2349 5.05422 18.615 4.80586 19.0866 4.64533L18.9577 4.26667C18.4266 4.44747 17.9854 4.73245 17.6402 5.12368L17.9401 5.38832ZM19.0902 4.64407C19.5692 4.47079 20.0688 4.384 20.5901 4.384V3.984C20.0234 3.984 19.4777 4.07854 18.9541 4.26792L19.0902 4.64407ZM20.5901 4.384C21.273 4.384 21.8704 4.49263 22.386 4.70494L22.5383 4.33506C21.9659 4.09937 21.3152 3.984 20.5901 3.984V4.384ZM22.386 4.70494C22.904 4.91823 23.3069 5.2091 23.6028 5.57396L23.9135 5.32204C23.5693 4.89757 23.1083 4.56977 22.5383 4.33506L22.386 4.70494ZM23.6076 5.5797C23.7291 5.71859 23.7737 5.85035 23.7664 5.98091L24.1658 6.00309C24.1799 5.74965 24.0858 5.51874 23.9086 5.3163L23.6076 5.5797ZM23.7665 5.98026C23.7599 6.09239 23.7068 6.19648 23.5741 6.296L23.8141 6.616C24.0228 6.45952 24.151 6.25428 24.1658 6.00374L23.7665 5.98026ZM23.5808 6.29119C23.4603 6.37402 23.3131 6.406 23.1219 6.37123L23.0503 6.76477C23.3284 6.81534 23.5866 6.77264 23.8074 6.62081L23.5808 6.29119ZM23.1219 6.37123C22.9214 6.33478 22.7601 6.25463 22.6306 6.13379L22.3577 6.42621C22.5482 6.60404 22.7815 6.71589 23.0503 6.76477L23.1219 6.37123ZM22.6326 6.13572C22.3467 5.86126 22.0324 5.66742 21.6894 5.56099L21.5708 5.94301C21.8466 6.02858 22.1082 6.18674 22.3556 6.42428L22.6326 6.13572ZM21.6894 5.56099C21.3568 5.45775 20.9787 5.408 20.5581 5.408V5.808C20.9482 5.808 21.2848 5.85425 21.5708 5.94301L21.6894 5.56099ZM20.5581 5.408C20.0667 5.408 19.6353 5.4917 19.271 5.66797L19.4452 6.02803C19.7423 5.8843 20.1109 5.808 20.5581 5.808V5.408ZM19.2687 5.66911C19.086 5.76047 18.9365 5.87942 18.8329 6.03133C18.7282 6.18484 18.6781 6.36089 18.6781 6.552H19.0781C19.0781 6.43378 19.108 6.33782 19.1634 6.25667C19.2198 6.17392 19.3103 6.09553 19.4476 6.02688L19.2687 5.66911ZM18.6781 6.552C18.6781 6.77915 18.7354 6.99088 18.8506 7.1829L19.1936 6.9771C19.1168 6.84912 19.0781 6.70885 19.0781 6.552H18.6781ZM18.8594 7.19625C18.9981 7.39042 19.2415 7.54705 19.5513 7.67983L19.7089 7.31217C19.4214 7.18895 19.2595 7.06824 19.1849 6.96375L18.8594 7.19625ZM19.557 7.68215C19.8719 7.80584 20.3225 7.9259 20.9022 8.04397L20.982 7.65202C20.4097 7.53544 19.9857 7.42082 19.7033 7.30985L19.557 7.68215ZM20.9039 8.04431C22.1011 8.2774 22.8848 8.60477 23.3001 9.00075L23.5761 8.71125C23.0741 8.23256 22.1938 7.88793 20.9803 7.65169L20.9039 8.04431ZM23.3036 9.00399C23.7316 9.39309 23.9421 9.86752 23.9421 10.44H24.3421C24.3421 9.75381 24.0833 9.17224 23.5727 8.70801L23.3036 9.00399ZM23.9421 10.44C23.9421 10.892 23.82 11.2955 23.5764 11.656L23.9078 11.88C24.1976 11.4512 24.3421 10.9693 24.3421 10.44H23.9421ZM23.5743 11.6592C23.3428 12.0162 22.9912 12.3082 22.5068 12.5302L22.6735 12.8938C23.2131 12.6465 23.6295 12.3092 23.9099 11.8768L23.5743 11.6592ZM22.5053 12.5309C22.0384 12.7494 21.4403 12.864 20.7021 12.864V13.264C21.4786 13.264 22.1392 13.1439 22.6749 12.8931L22.5053 12.5309ZM27.9496 12.6L27.8406 12.7677L27.8436 12.7696L27.9496 12.6ZM26.9416 11.48L26.7644 11.5727L26.7644 11.5727L26.9416 11.48ZM26.5736 5.944H26.7736V5.744H26.5736V5.944ZM25.2936 5.752L25.158 5.89896L25.158 5.89896L25.2936 5.752ZM25.2936 4.76L25.158 4.61304L25.158 4.61304L25.2936 4.76ZM26.5736 4.568V4.768H26.7736V4.568H26.5736ZM26.7976 1.688L26.6562 1.54658L26.7976 1.688ZM27.9496 1.688L28.091 1.54658L28.091 1.54658L27.9496 1.688ZM28.1736 4.568H27.9736V4.768H28.1736V4.568ZM30.0776 4.76L30.2133 4.61304L30.2133 4.61304L30.0776 4.76ZM30.0776 5.752L30.2133 5.89896L30.2133 5.89896L30.0776 5.752ZM28.1736 5.944V5.744H27.9736V5.944H28.1736ZM28.5256 10.968L28.6807 10.8417L28.6807 10.8417L28.5256 10.968ZM30.4136 11.624L30.2617 11.7543L30.2671 11.7601L30.4136 11.624ZM30.3496 12.776L30.2224 12.6215L30.2179 12.6255L30.3496 12.776ZM29.3896 12.8C28.8914 12.8 28.4486 12.676 28.0556 12.4304L27.8436 12.7696C28.304 13.0573 28.8212 13.2 29.3896 13.2V12.8ZM28.0586 12.4323C27.662 12.1745 27.349 11.8275 27.1189 11.3873L26.7644 11.5727C27.025 12.0712 27.3839 12.4708 27.8406 12.7677L28.0586 12.4323ZM27.1189 11.3873C26.89 10.9496 26.7736 10.4539 26.7736 9.896H26.3736C26.3736 10.5114 26.5025 11.0717 26.7644 11.5727L27.1189 11.3873ZM26.7736 9.896V5.944H26.3736V9.896H26.7736ZM26.5736 5.744H25.8376V6.144H26.5736V5.744ZM25.8376 5.744C25.6539 5.744 25.5243 5.69273 25.4293 5.60504L25.158 5.89896C25.3403 6.06727 25.5733 6.144 25.8376 6.144V5.744ZM25.4293 5.60504C25.3324 5.51564 25.2856 5.40929 25.2856 5.272H24.8856C24.8856 5.51871 24.9775 5.73236 25.158 5.89896L25.4293 5.60504ZM25.2856 5.272C25.2856 5.10644 25.3372 4.99197 25.4293 4.90696L25.158 4.61304C24.9727 4.78403 24.8856 5.01089 24.8856 5.272H25.2856ZM25.4293 4.90696C25.5243 4.81927 25.6539 4.768 25.8376 4.768V4.368C25.5733 4.368 25.3403 4.44472 25.158 4.61304L25.4293 4.90696ZM25.8376 4.768H26.5736V4.368H25.8376V4.768ZM26.7736 4.568V2.264H26.3736V4.568H26.7736ZM26.7736 2.264C26.7736 2.07592 26.8316 1.93691 26.939 1.82942L26.6562 1.54658C26.465 1.73775 26.3736 1.98275 26.3736 2.264H26.7736ZM26.939 1.82942C27.0465 1.72193 27.1855 1.664 27.3736 1.664V1.264C27.0924 1.264 26.8474 1.3554 26.6562 1.54658L26.939 1.82942ZM27.3736 1.664C27.5617 1.664 27.7007 1.72193 27.8082 1.82942L28.091 1.54658C27.8999 1.3554 27.6549 1.264 27.3736 1.264V1.664ZM27.8082 1.82942C27.9157 1.93691 27.9736 2.07592 27.9736 2.264H28.3736C28.3736 1.98275 28.2822 1.73775 28.091 1.54658L27.8082 1.82942ZM27.9736 2.264V4.568H28.3736V2.264H27.9736ZM28.1736 4.768H29.5336V4.368H28.1736V4.768ZM29.5336 4.768C29.7173 4.768 29.847 4.81927 29.942 4.90696L30.2133 4.61304C30.0309 4.44472 29.7979 4.368 29.5336 4.368V4.768ZM29.942 4.90696C30.0341 4.99197 30.0856 5.10644 30.0856 5.272H30.4856C30.4856 5.01089 30.3985 4.78403 30.2133 4.61304L29.942 4.90696ZM30.0856 5.272C30.0856 5.40929 30.0388 5.51564 29.942 5.60504L30.2133 5.89896C30.3938 5.73236 30.4856 5.51871 30.4856 5.272H30.0856ZM29.942 5.60504C29.847 5.69273 29.7173 5.744 29.5336 5.744V6.144C29.7979 6.144 30.0309 6.06727 30.2133 5.89896L29.942 5.60504ZM29.5336 5.744H28.1736V6.144H29.5336V5.744ZM27.9736 5.944V9.896H28.3736V5.944H27.9736ZM27.9736 9.896C27.9736 10.3615 28.1026 10.7654 28.3706 11.0943L28.6807 10.8417C28.4793 10.5946 28.3736 10.2838 28.3736 9.896H27.9736ZM28.3706 11.0943C28.6394 11.4242 28.9824 11.6 29.3896 11.6V11.2C29.1142 11.2 28.8812 11.0878 28.6807 10.8417L28.3706 11.0943ZM29.3896 11.6H29.9336V11.2H29.3896V11.6ZM29.9336 11.6C30.0656 11.6 30.1707 11.6479 30.2618 11.7542L30.5655 11.4938C30.4005 11.3014 30.1856 11.2 29.9336 11.2V11.6ZM30.2671 11.7601C30.3662 11.8668 30.4216 12.0076 30.4216 12.2H30.8216C30.8216 11.9231 30.7384 11.6798 30.5602 11.4879L30.2671 11.7601ZM30.4216 12.2C30.4216 12.3748 30.3577 12.5102 30.2225 12.6216L30.4768 12.9304C30.7042 12.7431 30.8216 12.4945 30.8216 12.2H30.4216ZM30.2179 12.6255C30.0914 12.7362 29.9178 12.8 29.6776 12.8V13.2C29.9921 13.2 30.2665 13.1145 30.4813 12.9265L30.2179 12.6255ZM29.6776 12.8H29.3896V13.2H29.6776V12.8ZM34.3075 12.504L34.2071 12.677L34.2092 12.6782L34.3075 12.504ZM32.7395 10.936L32.5646 11.0331L32.5665 11.0364L32.7395 10.936ZM32.7395 6.328L32.5658 6.22877L32.5653 6.22968L32.7395 6.328ZM34.3075 4.76L34.4058 4.93418L34.4079 4.93296L34.3075 4.76ZM38.8675 4.76L38.7671 4.93297L38.7692 4.93416L38.8675 4.76ZM40.4195 6.328L40.2446 6.42515L40.2465 6.42843L40.4195 6.328ZM40.4355 10.936L40.6097 11.0343L40.6103 11.0331L40.4355 10.936ZM38.8835 12.504L38.9818 12.6782L38.9839 12.677L38.8835 12.504ZM38.0675 11.24L37.9646 11.0685L37.9646 11.0685L38.0675 11.24ZM39.0595 10.184L38.8841 10.0879L38.8823 10.0912L39.0595 10.184ZM39.0595 7.08L38.8814 7.17113L38.8841 7.17606L39.0595 7.08ZM38.0675 6.008L37.9646 6.1795L37.9646 6.1795L38.0675 6.008ZM35.1235 6.008L35.2264 6.1795L35.2264 6.1795L35.1235 6.008ZM34.1155 7.08L34.2909 7.17607L34.2919 7.17433L34.1155 7.08ZM34.1155 10.184L34.2909 10.0879L34.2909 10.0879L34.1155 10.184ZM35.1235 11.24L35.0206 11.4115L35.0206 11.4115L35.1235 11.24ZM36.5955 12.864C35.7611 12.864 35.0332 12.684 34.4058 12.3298L34.2092 12.6782C34.9044 13.0707 35.7019 13.264 36.5955 13.264V12.864ZM34.4079 12.331C33.7767 11.9645 33.279 11.4668 32.9125 10.8356L32.5665 11.0364C32.968 11.7278 33.5157 12.2755 34.2071 12.677L34.4079 12.331ZM32.9143 10.8389C32.5595 10.2001 32.3795 9.4663 32.3795 8.632H31.9795C31.9795 9.5257 32.1729 10.3279 32.5647 11.0331L32.9143 10.8389ZM32.3795 8.632C32.3795 7.7865 32.5597 7.05336 32.9137 6.42632L32.5653 6.22968C32.1726 6.92531 31.9795 7.72817 31.9795 8.632H32.3795ZM32.9131 6.42723C33.2796 5.78591 33.7765 5.28941 34.4058 4.93416L34.2092 4.58583C33.5158 4.97725 32.9674 5.52609 32.5659 6.22877L32.9131 6.42723ZM34.4079 4.93296C35.035 4.56888 35.7621 4.384 36.5955 4.384V3.984C35.7009 3.984 34.9027 4.18312 34.2071 4.58704L34.4079 4.93296ZM36.5955 4.384C37.4177 4.384 38.1397 4.56866 38.7671 4.93296L38.9679 4.58704C38.2727 4.18334 37.4799 3.984 36.5955 3.984V4.384ZM38.7692 4.93416C39.398 5.28913 39.889 5.78495 40.2447 6.42513L40.5943 6.23087C40.2033 5.52705 39.6597 4.97753 38.9658 4.58583L38.7692 4.93416ZM40.2465 6.42843C40.6104 7.05509 40.7955 7.78745 40.7955 8.632H41.1955C41.1955 7.72721 40.9966 6.92358 40.5925 6.22757L40.2465 6.42843ZM40.7955 8.632C40.7955 9.4663 40.6155 10.2001 40.2607 10.8389L40.6103 11.0331C41.0021 10.3279 41.1955 9.5257 41.1955 8.632H40.7955ZM40.2613 10.8377C39.9056 11.4678 39.4138 11.9648 38.7831 12.331L38.9839 12.677C39.6758 12.2752 40.2187 11.7269 40.6097 11.0343L40.2613 10.8377ZM38.7852 12.3298C38.1578 12.684 37.4299 12.864 36.5955 12.864V13.264C37.4891 13.264 38.2866 13.0707 38.9818 12.6782L38.7852 12.3298ZM36.5955 11.824C37.1821 11.824 37.7092 11.6882 38.1704 11.4115L37.9646 11.0685C37.5725 11.3038 37.1182 11.424 36.5955 11.424V11.824ZM38.1704 11.4115C38.6291 11.1363 38.9852 10.7568 39.2367 10.2768L38.8823 10.0912C38.6644 10.5072 38.3592 10.8317 37.9646 11.0685L38.1704 11.4115ZM39.2349 10.2801C39.4986 9.79849 39.6275 9.24721 39.6275 8.632H39.2275C39.2275 9.19013 39.111 9.67351 38.8841 10.0879L39.2349 10.2801ZM39.6275 8.632C39.6275 8.01679 39.4986 7.46551 39.2349 6.98394L38.8841 7.17606C39.111 7.59049 39.2275 8.07387 39.2275 8.632H39.6275ZM39.2375 6.9889C38.9865 6.49818 38.6303 6.11245 38.1704 5.8365L37.9646 6.1795C38.358 6.41555 38.6632 6.74449 38.8815 7.1711L39.2375 6.9889ZM38.1704 5.8365C37.7092 5.55977 37.1821 5.424 36.5955 5.424V5.824C37.1182 5.824 37.5725 5.94423 37.9646 6.1795L38.1704 5.8365ZM36.5955 5.424C36.0089 5.424 35.4818 5.55977 35.0206 5.8365L35.2264 6.1795C35.6185 5.94423 36.0728 5.824 36.5955 5.824V5.424ZM35.0206 5.8365C34.5615 6.11197 34.2007 6.49662 33.9391 6.98567L34.2919 7.17433C34.5209 6.74604 34.8322 6.41603 35.2264 6.1795L35.0206 5.8365ZM33.9401 6.98394C33.6764 7.46551 33.5475 8.01679 33.5475 8.632H33.9475C33.9475 8.07387 34.064 7.59049 34.2909 7.17606L33.9401 6.98394ZM33.5475 8.632C33.5475 9.24721 33.6764 9.79849 33.9401 10.2801L34.2909 10.0879C34.064 9.67351 33.9475 9.19013 33.9475 8.632H33.5475ZM33.9401 10.2801C34.202 10.7583 34.5627 11.1367 35.0206 11.4115L35.2264 11.0685C34.831 10.8313 34.5197 10.5057 34.2909 10.0879L33.9401 10.2801ZM35.0206 11.4115C35.4818 11.6882 36.0089 11.824 36.5955 11.824V11.424C36.0728 11.424 35.6185 11.3038 35.2264 11.0685L35.0206 11.4115ZM43.8244 12.776L43.6879 12.9222L43.6879 12.9222L43.8244 12.776ZM43.5844 5.944H43.7844V5.744H43.5844V5.944ZM42.3524 5.752L42.2167 5.89896L42.2167 5.89896L42.3524 5.752ZM42.3524 4.76L42.2167 4.61304L42.2167 4.61304L42.3524 4.76ZM43.5844 4.568V4.768H43.7844V4.568H43.5844ZM44.0324 2.296L43.8569 2.19999L43.8555 2.20258L44.0324 2.296ZM45.3124 0.983999L45.4112 1.15788L45.4138 1.15639L45.3124 0.983999ZM47.7764 0.712L47.6402 0.858645L47.6454 0.863138L47.7764 0.712ZM47.7764 1.768L47.9125 1.91456L47.9128 1.91421L47.7764 1.768ZM45.7604 2.568L45.9076 2.70332L45.9076 2.70332L45.7604 2.568ZM45.2164 4.568H45.0164V4.768H45.2164V4.568ZM47.3924 4.76L47.528 4.61304L47.528 4.61304L47.3924 4.76ZM47.3924 5.752L47.528 5.89896L47.528 5.89896L47.3924 5.752ZM45.2164 5.944V5.744H45.0164V5.944H45.2164ZM44.3684 12.8C44.2206 12.8 44.087 12.7476 43.9608 12.6298L43.6879 12.9222C43.8817 13.1031 44.1108 13.2 44.3684 13.2V12.8ZM43.9608 12.6298C43.8465 12.5231 43.7844 12.3813 43.7844 12.184H43.3844C43.3844 12.4774 43.4823 12.7303 43.6879 12.9222L43.9608 12.6298ZM43.7844 12.184V5.944H43.3844V12.184H43.7844ZM43.5844 5.744H42.8964V6.144H43.5844V5.744ZM42.8964 5.744C42.7127 5.744 42.583 5.69273 42.488 5.60504L42.2167 5.89896C42.3991 6.06727 42.6321 6.144 42.8964 6.144V5.744ZM42.488 5.60504C42.3912 5.51564 42.3444 5.40929 42.3444 5.272H41.9444C41.9444 5.51871 42.0362 5.73236 42.2167 5.89896L42.488 5.60504ZM42.3444 5.272C42.3444 5.10644 42.3959 4.99197 42.488 4.90696L42.2167 4.61304C42.0315 4.78403 41.9444 5.01089 41.9444 5.272H42.3444ZM42.488 4.90696C42.583 4.81927 42.7127 4.768 42.8964 4.768V4.368C42.6321 4.368 42.3991 4.44472 42.2167 4.61304L42.488 4.90696ZM42.8964 4.768H43.5844V4.368H42.8964V4.768ZM43.7844 4.568V4.296H43.3844V4.568H43.7844ZM43.7844 4.296C43.7844 3.55405 43.9285 2.92071 44.2092 2.38942L43.8555 2.20258C43.5389 2.80195 43.3844 3.50194 43.3844 4.296H43.7844ZM44.2078 2.392C44.4999 1.8582 44.9005 1.44828 45.4112 1.15786L45.2135 0.810141C44.6363 1.13838 44.1835 1.60313 43.8569 2.2L44.2078 2.392ZM45.4138 1.15639C45.9231 0.856761 46.5166 0.704 47.2004 0.704V0.304C46.4549 0.304 45.7896 0.471239 45.211 0.811612L45.4138 1.15639ZM47.2004 0.704C47.3928 0.704 47.5335 0.759442 47.6403 0.858559L47.9125 0.565441C47.7205 0.387224 47.4773 0.304 47.2004 0.304V0.704ZM47.6454 0.863138C47.7612 0.963485 47.8164 1.08416 47.8164 1.24H48.2164C48.2164 0.96917 48.1116 0.737847 47.9074 0.560862L47.6454 0.863138ZM47.8164 1.24C47.8164 1.38247 47.763 1.50691 47.6399 1.62179L47.9128 1.91421C48.1097 1.73043 48.2164 1.50286 48.2164 1.24H47.8164ZM47.6403 1.62144C47.5335 1.72056 47.3928 1.776 47.2004 1.776V2.176C47.4773 2.176 47.7205 2.09278 47.9125 1.91456L47.6403 1.62144ZM47.2004 1.776C46.5542 1.776 46.0182 1.99183 45.6131 2.43267L45.9076 2.70332C46.2279 2.35483 46.6519 2.176 47.2004 2.176V1.776ZM45.6131 2.43267C45.2096 2.8718 45.0164 3.4465 45.0164 4.136H45.4164C45.4164 3.52417 45.5858 3.05354 45.9076 2.70332L45.6131 2.43267ZM45.0164 4.136V4.568H45.4164V4.136H45.0164ZM45.2164 4.768H46.8484V4.368H45.2164V4.768ZM46.8484 4.768C47.0321 4.768 47.1617 4.81927 47.2567 4.90696L47.528 4.61304C47.3457 4.44472 47.1127 4.368 46.8484 4.368V4.768ZM47.2567 4.90696C47.3488 4.99197 47.4004 5.10644 47.4004 5.272H47.8004C47.8004 5.01089 47.7133 4.78403 47.528 4.61304L47.2567 4.90696ZM47.4004 5.272C47.4004 5.40929 47.3536 5.51564 47.2567 5.60504L47.528 5.89896C47.7085 5.73236 47.8004 5.51871 47.8004 5.272H47.4004ZM47.2567 5.60504C47.1617 5.69273 47.0321 5.744 46.8484 5.744V6.144C47.1127 6.144 47.3457 6.06727 47.528 5.89896L47.2567 5.60504ZM46.8484 5.744H45.2164V6.144H46.8484V5.744ZM45.0164 5.944V12.184H45.4164V5.944H45.0164ZM45.0164 12.184C45.0164 12.3856 44.9567 12.5288 44.851 12.6346L45.1338 12.9174C45.3267 12.7245 45.4164 12.4731 45.4164 12.184H45.0164ZM44.851 12.6346C44.7484 12.7372 44.5967 12.8 44.3684 12.8V13.2C44.6734 13.2 44.9377 13.1135 45.1338 12.9174L44.851 12.6346ZM50.9954 12.616L50.8982 12.7909L50.9021 12.7929L50.9954 12.616ZM49.6194 11.224L49.4437 11.3196L49.445 11.3219L49.6194 11.224ZM49.3474 4.472L49.206 4.33058L49.206 4.33058L49.3474 4.472ZM50.5154 4.472L50.3688 4.60879L50.3789 4.61821L50.5154 4.472ZM51.4754 10.984L51.3425 11.1335L51.346 11.1366L51.4754 10.984ZM54.5154 11.336L54.4259 11.1571L54.4238 11.1582L54.5154 11.336ZM55.3794 10.6L55.544 10.7135L55.544 10.7135L55.3794 10.6ZM55.9234 4.456L55.7868 4.3097L55.782 4.31458L55.9234 4.456ZM57.1074 12.776L57.2489 12.9175L57.2536 12.9125L57.1074 12.776ZM55.9234 12.776L55.7768 12.9128L55.7869 12.9222L55.9234 12.776ZM55.6994 12.008H55.8994V11.5252L55.558 11.8666L55.6994 12.008ZM54.4994 12.792L54.5751 12.9771L54.4994 12.792ZM52.9794 12.88C52.2723 12.88 51.6435 12.7317 51.0887 12.4391L50.9021 12.7929C51.5206 13.119 52.2145 13.28 52.9794 13.28V12.88ZM51.0925 12.4412C50.5508 12.1402 50.1181 11.7038 49.7938 11.1261L49.445 11.3219C49.8033 11.9602 50.288 12.4518 50.8982 12.7908L51.0925 12.4412ZM49.7951 11.1284C49.4842 10.5568 49.3234 9.84505 49.3234 8.984H48.9234C48.9234 9.89362 49.0932 10.6752 49.4437 11.3196L49.7951 11.1284ZM49.3234 8.984V5.048H48.9234V8.984H49.3234ZM49.3234 5.048C49.3234 4.85992 49.3813 4.72091 49.4888 4.61342L49.206 4.33058C49.0148 4.52175 48.9234 4.76675 48.9234 5.048H49.3234ZM49.4888 4.61342C49.6098 4.49245 49.7556 4.432 49.9394 4.432V4.032C49.6539 4.032 49.405 4.13155 49.206 4.33058L49.4888 4.61342ZM49.9394 4.432C50.1231 4.432 50.2606 4.49215 50.3692 4.60846L50.6616 4.33554C50.4715 4.13185 50.225 4.032 49.9394 4.032V4.432ZM50.3789 4.61821C50.4952 4.72677 50.5554 4.86429 50.5554 5.048H50.9554C50.9554 4.76238 50.8555 4.5159 50.6518 4.32579L50.3789 4.61821ZM50.5554 5.048V8.984H50.9554V5.048H50.5554ZM50.5554 8.984C50.5554 9.92354 50.8045 10.6553 51.3425 11.1335L51.6082 10.8345C51.1862 10.4594 50.9554 9.85779 50.9554 8.984H50.5554ZM51.346 11.1366C51.8775 11.5871 52.5331 11.808 53.2994 11.808V11.408C52.615 11.408 52.0546 11.2129 51.6047 10.8314L51.346 11.1366ZM53.2994 11.808C53.7848 11.808 54.2225 11.7119 54.607 11.5138L54.4238 11.1582C54.1043 11.3228 53.7312 11.408 53.2994 11.408V11.808ZM54.6048 11.5149C54.9952 11.3197 55.31 11.0528 55.544 10.7135L55.2147 10.4865C55.0221 10.7658 54.7609 10.9896 54.4259 11.1571L54.6048 11.5149ZM55.544 10.7135C55.7809 10.3701 55.8994 9.98361 55.8994 9.56H55.4994C55.4994 9.90439 55.4045 10.2113 55.2147 10.4865L55.544 10.7135ZM55.8994 9.56V5.048H55.4994V9.56H55.8994ZM55.8994 5.048C55.8994 4.84644 55.9591 4.70316 56.0648 4.59742L55.782 4.31458C55.589 4.5075 55.4994 4.75889 55.4994 5.048H55.8994ZM56.0598 4.60221C56.18 4.49008 56.3274 4.432 56.5154 4.432V4.032C56.2341 4.032 55.9868 4.12325 55.7869 4.30979L56.0598 4.60221ZM56.5154 4.432C56.7169 4.432 56.8602 4.49168 56.966 4.59742L57.2488 4.31458C57.0559 4.12165 56.8045 4.032 56.5154 4.032V4.432ZM56.966 4.59742C57.0717 4.70316 57.1314 4.84644 57.1314 5.048H57.5314C57.5314 4.75889 57.4417 4.5075 57.2488 4.31458L56.966 4.59742ZM57.1314 5.048V12.184H57.5314V5.048H57.1314ZM57.1314 12.184C57.1314 12.372 57.0733 12.5194 56.9612 12.6395L57.2536 12.9125C57.4401 12.7126 57.5314 12.4653 57.5314 12.184H57.1314ZM56.966 12.6346C56.8602 12.7403 56.7169 12.8 56.5154 12.8V13.2C56.8045 13.2 57.0559 13.1103 57.2488 12.9174L56.966 12.6346ZM56.5154 12.8C56.3274 12.8 56.18 12.7419 56.0598 12.6298L55.7869 12.9222C55.9868 13.1087 56.2341 13.2 56.5154 13.2V12.8ZM56.0696 12.6395C55.9575 12.5194 55.8994 12.372 55.8994 12.184H55.4994C55.4994 12.4653 55.5906 12.7126 55.7772 12.9125L56.0696 12.6395ZM55.8994 12.184V12.008H55.4994V12.184H55.8994ZM55.558 11.8666C55.2476 12.1769 54.8705 12.4241 54.4236 12.6069L54.5751 12.9771C55.0669 12.7759 55.4898 12.5004 55.8408 12.1494L55.558 11.8666ZM54.4236 12.6069C53.9801 12.7884 53.4993 12.88 52.9794 12.88V13.28C53.5474 13.28 54.08 13.1796 54.5751 12.9771L54.4236 12.6069ZM61.9176 12.488L61.8151 12.6598L61.8184 12.6616L61.9176 12.488ZM60.3336 10.888L60.16 10.9872L60.1612 10.9893L60.3336 10.888ZM60.2856 6.36L60.1096 6.26501L60.1091 6.26603L60.2856 6.36ZM61.7576 4.776L61.8631 4.94594L61.8652 4.94461L61.7576 4.776ZM65.5976 4.584L65.5082 4.76291L65.5111 4.7643L65.5976 4.584ZM66.9416 5.64L66.7862 5.76584L67.1416 6.20492V5.64H66.9416ZM67.1656 0.728L67.0291 0.581702L67.0242 0.586578L67.1656 0.728ZM67.9816 10.888L67.8092 10.7867L67.808 10.7888L67.9816 10.888ZM66.4136 12.488L66.5141 12.661L66.5161 12.6597L66.4136 12.488ZM65.6296 11.24L65.7325 11.4115L65.7356 11.4096L65.6296 11.24ZM66.6376 10.152L66.4613 10.0577L66.4613 10.0577L66.6376 10.152ZM66.6376 7.08L66.4622 7.17606L66.4622 7.17606L66.6376 7.08ZM65.6296 6.024L65.5236 6.19363L65.5267 6.1955L65.6296 6.024ZM62.7176 6.024L62.8205 6.1955L62.8217 6.19476L62.7176 6.024ZM61.6936 7.08L61.5199 6.98076L61.5182 6.98394L61.6936 7.08ZM61.6936 10.152L61.5172 10.2463L61.519 10.2495L61.6936 10.152ZM62.7176 11.24L62.6116 11.4097L62.6166 11.4126L62.7176 11.24ZM64.1736 12.864C63.3737 12.864 62.6564 12.6798 62.0169 12.3144L61.8184 12.6616C62.5229 13.0642 63.3095 13.264 64.1736 13.264V12.864ZM62.0201 12.3163C61.388 11.939 60.8839 11.4301 60.5061 10.7867L60.1612 10.9893C60.5727 11.6899 61.1246 12.2476 61.8151 12.6597L62.0201 12.3163ZM60.5073 10.7888C60.1421 10.1496 59.9576 9.42704 59.9576 8.616H59.5576C59.5576 9.49029 59.7572 10.2824 60.16 10.9872L60.5073 10.7888ZM59.9576 8.616C59.9576 7.80196 60.1274 7.08292 60.4622 6.45397L60.1091 6.26603C59.7398 6.95974 59.5576 7.74471 59.5576 8.616H59.9576ZM60.4616 6.45499C60.8086 5.81214 61.2755 5.31062 61.8631 4.94593L61.6522 4.60607C61.0024 5.00938 60.488 5.56386 60.1096 6.26501L60.4616 6.45499ZM61.8652 4.94461C62.4497 4.57172 63.1106 4.384 63.8536 4.384V3.984C63.0393 3.984 62.3029 4.19095 61.6501 4.60739L61.8652 4.94461ZM63.8536 4.384C64.4537 4.384 65.0042 4.51087 65.5082 4.76289L65.6871 4.40511C65.1244 4.12379 64.5122 3.984 63.8536 3.984V4.384ZM65.5111 4.7643C66.0184 5.00783 66.4427 5.34149 66.7862 5.76584L67.0971 5.51416C66.7153 5.04251 66.2435 4.67217 65.6842 4.40369L65.5111 4.7643ZM67.1416 5.64V1.32H66.7416V5.64H67.1416ZM67.1416 1.32C67.1416 1.11844 67.2013 0.975163 67.307 0.869421L67.0242 0.586578C66.8313 0.779503 66.7416 1.03089 66.7416 1.32H67.1416ZM67.3021 0.874211C67.4222 0.762082 67.5696 0.704 67.7576 0.704V0.304C67.4763 0.304 67.229 0.395251 67.0292 0.581789L67.3021 0.874211ZM67.7576 0.704C67.9592 0.704 68.1025 0.763679 68.2082 0.869421L68.491 0.586578C68.2981 0.393654 68.0467 0.304 67.7576 0.304V0.704ZM68.2082 0.869421C68.3139 0.975163 68.3736 1.11844 68.3736 1.32H68.7736C68.7736 1.03089 68.684 0.779503 68.491 0.586578L68.2082 0.869421ZM68.3736 1.32V8.616H68.7736V1.32H68.3736ZM68.3736 8.616C68.3736 9.42605 68.1843 10.1479 67.8092 10.7867L68.1541 10.9893C68.5682 10.2841 68.7736 9.49129 68.7736 8.616H68.3736ZM67.808 10.7888C67.441 11.431 66.9427 11.9393 66.3111 12.3163L66.5161 12.6597C67.2072 12.2473 67.7543 11.689 68.1553 10.9872L67.808 10.7888ZM66.3132 12.315C65.685 12.6798 64.9735 12.864 64.1736 12.864V13.264C65.0377 13.264 65.8196 13.0642 66.5141 12.661L66.3132 12.315ZM64.1736 11.824C64.7504 11.824 65.2719 11.6879 65.7325 11.4115L65.5267 11.0685C65.134 11.3041 64.6849 11.424 64.1736 11.424V11.824ZM65.7356 11.4096C66.1929 11.1238 66.5528 10.7347 66.814 10.2463L66.4613 10.0577C66.2318 10.4866 65.9196 10.8229 65.5236 11.0704L65.7356 11.4096ZM66.814 10.2463C67.0762 9.75617 67.2056 9.21132 67.2056 8.616H66.8056C66.8056 9.15135 66.6898 9.6305 66.4613 10.0577L66.814 10.2463ZM67.2056 8.616C67.2056 8.01078 67.0765 7.46498 66.813 6.98394L66.4622 7.17606C66.6894 7.59102 66.8056 8.06922 66.8056 8.616H67.2056ZM66.813 6.98394C66.5511 6.50567 66.1905 6.12727 65.7325 5.8525L65.5267 6.1955C65.9221 6.43273 66.2334 6.75833 66.4622 7.17606L66.813 6.98394ZM65.7356 5.8544C65.2746 5.56625 64.7519 5.424 64.1736 5.424V5.824C64.6833 5.824 65.1313 5.94841 65.5236 6.1936L65.7356 5.8544ZM64.1736 5.424C63.6051 5.424 63.0835 5.56664 62.6135 5.85324L62.8217 6.19476C63.2264 5.94803 63.6754 5.824 64.1736 5.824V5.424ZM62.6147 5.8525C62.1576 6.1268 61.7923 6.50416 61.52 6.98077L61.8673 7.17923C62.1069 6.75983 62.4244 6.4332 62.8205 6.1955L62.6147 5.8525ZM61.5182 6.98394C61.2548 7.46498 61.1256 8.01078 61.1256 8.616H61.5256C61.5256 8.06922 61.6418 7.59102 61.869 7.17606L61.5182 6.98394ZM61.1256 8.616C61.1256 9.21132 61.2551 9.75617 61.5173 10.2463L61.87 10.0577C61.6415 9.6305 61.5256 9.15135 61.5256 8.616H61.1256ZM61.519 10.2495C61.7907 10.7362 62.1551 11.1243 62.6116 11.4096L62.8236 11.0704C62.4268 10.8224 62.1086 10.4851 61.8683 10.0545L61.519 10.2495ZM62.6166 11.4126C63.0862 11.6875 63.6067 11.824 64.1736 11.824V11.424C63.6739 11.424 63.2237 11.3045 62.8187 11.0674L62.6166 11.4126Z" fill="white"/>
</svg>
